<svg width="167" height="59" viewBox="0 0 167 59" fill="none" xmlns="http://www.w3.org/2000/svg">
<path d="M14 28H27.2841V41.2841H14V28Z" fill="#EDD2FD"/>
<path d="M14 28V27H13.5V28H14ZM27.2841 28H27.7841V27H27.2841V28ZM27.2841 41.2841V42.2841H27.7841V41.2841H27.2841ZM14 41.2841H13.5V42.2841H14V41.2841ZM14 29H27.2841V27H14V29ZM26.7841 28V41.2841H27.7841V28H26.7841ZM27.2841 40.2841H14V42.2841H27.2841V40.2841ZM14.5 41.2841V28H13.5V41.2841H14.5Z" fill="#202020"/>
<path d="M20.9998 27.9961C20.9998 18.0803 22.845 20.0599 19.6716 9.76562" stroke="#202020" stroke-width="2" stroke-linecap="round" stroke-linejoin="round"/>
<path d="M17.1622 6.21075C18.407 7.13925 19.1991 8.76413 19.765 10.5051C17.8265 11.7715 14.7957 11.3175 13.3246 10.5051C11.9667 9.80869 9.33937 7.60838 8.82277 4.27794C12.808 3.52097 15.9175 5.28225 17.1622 6.21075Z" fill="#4CB446" stroke="#202020" stroke-width="2" stroke-linecap="round" stroke-linejoin="round"/>
<path d="M15.9226 8.30156C15.6796 8.14345 18.5171 9.49733 19.0885 10.2312L18.8757 10.5879C18.7957 10.278 16.7031 8.66781 15.9226 8.30156Z" fill="#202020" stroke="#202020" stroke-width="0.5" stroke-miterlimit="16"/>
<path d="M21.5645 4.24168C20.1899 5.80821 19.6971 7.77309 19.749 9.41404C21.8991 9.29798 24.056 8.58641 25.1857 7.25931C26.3154 5.9322 27.1094 4.24168 27.1094 1.92042C25.1857 1.39058 22.583 3.08105 21.5645 4.24168Z" fill="#4CB446" stroke="#202020" stroke-width="2" stroke-linecap="round" stroke-linejoin="round"/>
<path d="M22.773 6.30481C22.9687 6.09097 20.5597 8.11118 20.19 8.96459L20.4852 9.2568C20.4852 8.93669 22.1088 6.85454 22.773 6.30481Z" fill="#202020" stroke="#202020" stroke-width="0.5" stroke-miterlimit="16"/>
<path d="M14 14.7672C21 20.8978 20.4556 25.9286 21 27.9967C21.6222 25.9286 21 21.1178 28 14.7656V27.9967H21H14V14.7672Z" fill="#FCC8C7"/>
<path d="M21 27.9967C20.4556 25.9286 21 20.8978 14 14.7672V27.9967H21ZM21 27.9967C21.6222 25.9286 21 21.1178 28 14.7656V27.9967H21Z" stroke="#202020" stroke-width="2" stroke-linejoin="round"/>
<path d="M27.7158 15.2857C27.7158 14.9596 27.9802 14.6953 28.3062 14.6953H38.6383C39.9426 14.6953 40.9999 15.7526 40.9999 17.0569V27.9794H27.7158V15.2857Z" fill="#FDCDBA" stroke="#202020" stroke-width="2" stroke-linejoin="round"/>
<rect x="27.7158" y="27.9844" width="13.2841" height="13.2841" fill="#F9F4AE" stroke="#202020" stroke-width="2"/>
<path d="M27.7158 41.2656H40.9999V52.1881C40.9999 53.4924 39.9426 54.5498 38.6383 54.5498H27.7158V41.2656Z" fill="#DAEDC3" stroke="#202020" stroke-width="2" stroke-linejoin="round"/>
<path d="M14.2842 15.2935C14.2842 14.9675 14.0198 14.7031 13.6938 14.7031H3.36168C2.05739 14.7031 1.00005 15.7605 1.00005 17.0647V27.9873H14.2842V15.2935Z" fill="#FBDEE2" stroke="#202020" stroke-width="2" stroke-linejoin="round"/>
<rect width="13.2841" height="13.2841" transform="matrix(-1 0 0 1 14.2842 27.9844)" fill="#DCCCFF" stroke="#202020" stroke-width="2"/>
<path d="M14.2842 41.2656H1.00005V52.1881C1.00005 53.4924 2.05739 54.5498 3.36167 54.5498H14.2842V41.2656Z" fill="#C6DCFB" stroke="#202020" stroke-width="2" stroke-linejoin="round"/>
<path d="M57.976 47C57.6987 47 57.56 46.8613 57.56 46.584V23.928C57.56 23.6507 57.6987 23.512 57.976 23.512H61.656C61.8907 23.512 62.0507 23.608 62.136 23.8L70.264 37.304L78.296 23.8C78.4027 23.608 78.5627 23.512 78.776 23.512H82.36C82.6373 23.512 82.776 23.6507 82.776 23.928V46.584C82.776 46.8613 82.6373 47 82.36 47H79.032C78.7547 47 78.616 46.8613 78.616 46.584V30.712L71.736 42.232C71.6507 42.424 71.4907 42.52 71.256 42.52H69.08C68.8667 42.52 68.7067 42.424 68.6 42.232L61.72 30.872V46.584C61.72 46.8613 61.5813 47 61.304 47H57.976ZM94.3038 47.32C92.7251 47.32 91.3491 46.9573 90.1758 46.232C89.0238 45.5067 88.1278 44.4933 87.4878 43.192C86.8691 41.8907 86.5598 40.3973 86.5598 38.712C86.5598 37.0053 86.8691 35.512 87.4878 34.232C88.1278 32.9307 89.0238 31.9173 90.1758 31.192C91.3491 30.4667 92.7251 30.104 94.3038 30.104C95.4558 30.104 96.4904 30.3387 97.4078 30.808C98.3464 31.256 99.1144 31.8853 99.7118 32.696L99.8078 30.84C99.8078 30.5627 99.9571 30.424 100.256 30.424H103.264C103.541 30.424 103.68 30.5627 103.68 30.84V46.584C103.68 46.8613 103.541 47 103.264 47H100.256C99.9571 47 99.8078 46.8613 99.8078 46.584L99.7118 44.728C99.1144 45.5387 98.3464 46.1787 97.4078 46.648C96.4904 47.096 95.4558 47.32 94.3038 47.32ZM95.3278 43.544C96.6504 43.544 97.7278 43.096 98.5598 42.2C99.3918 41.304 99.8078 40.1413 99.8078 38.712C99.8078 37.2827 99.3918 36.12 98.5598 35.224C97.7278 34.328 96.6504 33.88 95.3278 33.88C94.0051 33.88 92.9278 34.328 92.0958 35.224C91.2638 36.12 90.8478 37.2827 90.8478 38.712C90.8478 40.1413 91.2638 41.304 92.0958 42.2C92.9278 43.096 94.0051 43.544 95.3278 43.544ZM108.436 47C108.158 47 108.02 46.8613 108.02 46.584V30.84C108.02 30.5627 108.158 30.424 108.436 30.424H111.444C111.742 30.424 111.892 30.5627 111.892 30.84L111.988 32.728C112.606 31.8533 113.396 31.2027 114.356 30.776C115.316 30.328 116.329 30.104 117.396 30.104C119.316 30.104 120.798 30.648 121.844 31.736C122.91 32.824 123.444 34.3173 123.444 36.216V46.584C123.444 46.8613 123.305 47 123.028 47H119.7C119.422 47 119.284 46.8613 119.284 46.584V37.912C119.284 36.5253 119.028 35.512 118.516 34.872C118.004 34.2107 117.204 33.88 116.116 33.88C115.454 33.88 114.814 34.0507 114.196 34.392C113.598 34.7333 113.108 35.2453 112.724 35.928C112.361 36.6107 112.18 37.4853 112.18 38.552V46.584C112.18 46.8613 112.041 47 111.764 47H108.436ZM134.46 47.32C132.881 47.32 131.505 46.9573 130.332 46.232C129.18 45.5067 128.284 44.4933 127.644 43.192C127.025 41.8907 126.716 40.3973 126.716 38.712C126.716 37.0053 127.025 35.512 127.644 34.232C128.284 32.9307 129.18 31.9173 130.332 31.192C131.505 30.4667 132.881 30.104 134.46 30.104C135.548 30.104 136.54 30.3173 137.436 30.744C138.332 31.1493 139.079 31.7147 139.676 32.44V23.416C139.676 23.1387 139.815 23 140.092 23H143.42C143.697 23 143.836 23.1387 143.836 23.416V46.584C143.836 46.8613 143.697 47 143.42 47H140.412C140.113 47 139.964 46.8613 139.964 46.584L139.868 44.728C139.271 45.5387 138.503 46.1787 137.564 46.648C136.647 47.096 135.612 47.32 134.46 47.32ZM135.484 43.544C136.807 43.544 137.884 43.096 138.716 42.2C139.548 41.304 139.964 40.1413 139.964 38.712C139.964 37.2827 139.548 36.12 138.716 35.224C137.884 34.328 136.807 33.88 135.484 33.88C134.161 33.88 133.084 34.328 132.252 35.224C131.42 36.12 131.004 37.2827 131.004 38.712C131.004 40.1413 131.42 41.304 132.252 42.2C133.084 43.096 134.161 43.544 135.484 43.544ZM154.96 47.32C153.381 47.32 152.005 46.9573 150.832 46.232C149.68 45.5067 148.784 44.4933 148.144 43.192C147.525 41.8907 147.216 40.3973 147.216 38.712C147.216 37.0053 147.525 35.512 148.144 34.232C148.784 32.9307 149.68 31.9173 150.832 31.192C152.005 30.4667 153.381 30.104 154.96 30.104C156.112 30.104 157.147 30.3387 158.064 30.808C159.003 31.256 159.771 31.8853 160.368 32.696L160.464 30.84C160.464 30.5627 160.613 30.424 160.912 30.424H163.92C164.197 30.424 164.336 30.5627 164.336 30.84V46.584C164.336 46.8613 164.197 47 163.92 47H160.912C160.613 47 160.464 46.8613 160.464 46.584L160.368 44.728C159.771 45.5387 159.003 46.1787 158.064 46.648C157.147 47.096 156.112 47.32 154.96 47.32ZM155.984 43.544C157.307 43.544 158.384 43.096 159.216 42.2C160.048 41.304 160.464 40.1413 160.464 38.712C160.464 37.2827 160.048 36.12 159.216 35.224C158.384 34.328 157.307 33.88 155.984 33.88C154.661 33.88 153.584 34.328 152.752 35.224C151.92 36.12 151.504 37.2827 151.504 38.712C151.504 40.1413 151.92 41.304 152.752 42.2C153.584 43.096 154.661 43.544 155.984 43.544Z" fill="#202020"/>
</svg>
