<svg width="42" height="56" viewBox="0 0 42 56" fill="none" xmlns="http://www.w3.org/2000/svg">
<path d="M14 28H27.2841V41.2841H14V28Z" fill="#EDD2FD"/>
<path d="M14 28V27H13.5V28H14ZM27.2841 28H27.7841V27H27.2841V28ZM27.2841 41.2841V42.2841H27.7841V41.2841H27.2841ZM14 41.2841H13.5V42.2841H14V41.2841ZM14 29H27.2841V27H14V29ZM26.7841 28V41.2841H27.7841V28H26.7841ZM27.2841 40.2841H14V42.2841H27.2841V40.2841ZM14.5 41.2841V28H13.5V41.2841H14.5Z" fill="#202020"/>
<path d="M20.9998 27.9961C20.9998 18.0803 22.845 20.0599 19.6716 9.76562" stroke="#202020" stroke-width="2" stroke-linecap="round" stroke-linejoin="round"/>
<path d="M17.1622 6.21075C18.407 7.13925 19.1991 8.76413 19.765 10.5051C17.8265 11.7715 14.7957 11.3175 13.3246 10.5051C11.9667 9.80869 9.33937 7.60838 8.82277 4.27794C12.808 3.52097 15.9175 5.28225 17.1622 6.21075Z" fill="#4CB446" stroke="#202020" stroke-width="2" stroke-linecap="round" stroke-linejoin="round"/>
<path d="M15.9226 8.30156C15.6796 8.14345 18.5171 9.49733 19.0885 10.2312L18.8757 10.5879C18.7957 10.278 16.7031 8.66781 15.9226 8.30156Z" fill="#202020" stroke="#202020" stroke-width="0.5" stroke-miterlimit="16"/>
<path d="M21.5645 4.24168C20.1899 5.80821 19.6971 7.77309 19.749 9.41404C21.8991 9.29798 24.056 8.58641 25.1857 7.25931C26.3154 5.9322 27.1094 4.24168 27.1094 1.92042C25.1857 1.39058 22.583 3.08105 21.5645 4.24168Z" fill="#4CB446" stroke="#202020" stroke-width="2" stroke-linecap="round" stroke-linejoin="round"/>
<path d="M22.773 6.30481C22.9687 6.09097 20.5597 8.11118 20.19 8.96459L20.4852 9.2568C20.4852 8.93669 22.1088 6.85454 22.773 6.30481Z" fill="#202020" stroke="#202020" stroke-width="0.5" stroke-miterlimit="16"/>
<path d="M14 14.7672C21 20.8978 20.4556 25.9286 21 27.9967C21.6222 25.9286 21 21.1178 28 14.7656V27.9967H21H14V14.7672Z" fill="#FCC8C7"/>
<path d="M21 27.9967C20.4556 25.9286 21 20.8978 14 14.7672V27.9967H21ZM21 27.9967C21.6222 25.9286 21 21.1178 28 14.7656V27.9967H21Z" stroke="#202020" stroke-width="2" stroke-linejoin="round"/>
<path d="M27.7158 15.2857C27.7158 14.9596 27.9802 14.6953 28.3062 14.6953H38.6383C39.9426 14.6953 40.9999 15.7526 40.9999 17.0569V27.9794H27.7158V15.2857Z" fill="#FDCDBA" stroke="#202020" stroke-width="2" stroke-linejoin="round"/>
<rect x="27.7158" y="27.9844" width="13.2841" height="13.2841" fill="#F9F4AE" stroke="#202020" stroke-width="2"/>
<path d="M27.7158 41.2656H40.9999V52.1881C40.9999 53.4924 39.9426 54.5498 38.6383 54.5498H27.7158V41.2656Z" fill="#DAEDC3" stroke="#202020" stroke-width="2" stroke-linejoin="round"/>
<path d="M14.2842 15.2935C14.2842 14.9675 14.0198 14.7031 13.6938 14.7031H3.36168C2.05739 14.7031 1.00005 15.7605 1.00005 17.0647V27.9873H14.2842V15.2935Z" fill="#FBDEE2" stroke="#202020" stroke-width="2" stroke-linejoin="round"/>
<rect width="13.2841" height="13.2841" transform="matrix(-1 0 0 1 14.2842 27.9844)" fill="#DCCCFF" stroke="#202020" stroke-width="2"/>
<path d="M14.2842 41.2656H1.00005V52.1881C1.00005 53.4924 2.05739 54.5498 3.36167 54.5498H14.2842V41.2656Z" fill="#C6DCFB" stroke="#202020" stroke-width="2" stroke-linejoin="round"/>
</svg>
