<svg width="195" height="109" viewBox="0 0 195 109" fill="none" xmlns="http://www.w3.org/2000/svg">
<rect width="195" height="108" transform="translate(0 1)" fill="white"/>
<path d="M38.25 66H156.75" stroke="#D9CABF" stroke-width="2.59" stroke-linecap="round"/>
<path d="M109.5 0.999999C119.5 16.5 114.895 41.5765 96.5367 38.7689C95.6941 38.4407 94.8295 38.596 94.0548 37.8106C86.6421 36.5535 75.9998 30.5 88 3.49867L97.5 14C98.6381 12.2043 107.5 1.5 109.5 0.999999Z" fill="#F6B2BB"/>
<path d="M100.963 62.5965C99.8421 61.683 101.75 62.5965 100.428 56M96.5367 38.7689C114.895 41.5765 119.5 16.5 109.5 0.999999C107.5 1.5 98.6381 12.2043 97.5 14M96.5367 38.7689C95.6941 38.4407 94.8295 38.596 94.0548 37.8106M96.5367 38.7689C97.25 46.5 98.6297 51.969 100.428 56M94.0548 37.8106C86.6421 36.5535 75.9998 30.5 88 3.49867L97.5 14M94.0548 37.8106C90.2323 33.9348 90 23.5 97.5 14M100.428 56C101.805 52.2932 105.802 47.8532 110.773 47.747" stroke="#202020" stroke-width="2" stroke-linejoin="round"/>
<path d="M89.2602 55C98.006 55 101.014 63.6134 101.014 65.9752C101.014 57.032 108.251 57.75 111.25 57.7487C110.5 64.994 105.014 65.578 101.014 65.9752C93.2692 66.7445 89.0129 58.254 89.2602 55Z" fill="#4CB446"/>
<path d="M101.014 65.9752C101.014 63.6134 98.006 55 89.2602 55C89.0129 58.254 93.2692 66.7445 101.014 65.9752ZM101.014 65.9752C105.014 65.578 110.5 64.994 111.25 57.7487C108.251 57.75 101.014 57.032 101.014 65.9752Z" stroke="#202020" stroke-width="2" stroke-linejoin="round"/>
<path d="M13.5142 88.4648V89.7832C13.4966 91.0312 13.4966 92.332 13.0923 93.9668L11.4224 93.7734C11.8443 92.165 11.8443 91.0225 11.8443 89.8008H2.63332V88.4648H13.5142ZM15.2896 94.7754V96.1289H0.963402V94.7754H6.71145V91.9277H8.34621V94.7754H15.2896ZM13.479 97.7109V99.0469H4.39114V101.93H13.69V103.283H2.70364V97.7109H13.479ZM29.5975 89.1328V96.4805H22.2322V89.1328H29.5975ZM23.867 90.4863V95.1621H27.9627V90.4863H23.867ZM33.992 87.7266V92.4375H36.2772V93.8438H33.992V99.2754H32.3221V87.7266H33.992ZM34.66 101.807V103.16H24.0076V98.168H25.6775V101.807H34.66ZM49.8032 87.7441V93.8438H52.3344V95.2148H49.8032V103.529H48.1332V87.7441H49.8032ZM45.5668 89.2559V90.6094H39.8715V98.2207C42.517 98.2119 44.5034 98.0977 46.7446 97.6934L46.9555 99.0996C44.4946 99.5391 42.4028 99.627 39.4672 99.6094H38.2016V89.2559H45.5668ZM65.7198 87.7441V93.8965H68.2511V95.3027H65.7198V103.529H64.0675V87.7441H65.7198ZM61.2725 89.168V94.9512H55.753V98.3613C58.46 98.3525 60.4639 98.2559 62.7667 97.834L62.9249 99.1875C60.4639 99.6445 58.337 99.75 55.3839 99.7676H54.1007V93.5977H59.6202V90.5215H54.0655V89.168H61.2725ZM82.1462 96.1289V97.4648H71.1775V89.0449H81.988V90.3984H72.865V92.5254H81.654V93.8438H72.865V96.1289H82.1462ZM83.781 100.137V101.508H69.3669V100.137H83.781ZM97.5531 87.7441V94.0195H99.9965V95.4082H97.5531V103.477H95.8832V87.7441H97.5531ZM93.4398 89.3965C93.4222 93.9492 91.4183 98.0098 86.2328 100.576L85.3011 99.2754C89.2474 97.3066 91.392 94.459 91.7347 90.7852H86.0922V89.3965H93.4398ZM110.314 88.2539C111.668 88.2539 112.81 88.7373 113.548 89.5547H117.416V87.7441H119.068V95.7598H117.416V94.1074H113.584C112.845 94.9512 111.685 95.4434 110.314 95.4434C107.923 95.4434 106.183 93.9844 106.183 91.8398C106.183 89.7305 107.923 88.2539 110.314 88.2539ZM110.314 89.625C108.838 89.6074 107.783 90.5215 107.783 91.8398C107.783 93.1934 108.838 94.0898 110.314 94.1074C111.756 94.0898 112.81 93.1934 112.81 91.8398C112.81 90.5215 111.756 89.6074 110.314 89.625ZM119.068 96.5332V100.453H110.472V101.965H119.631V103.301H108.802V99.2051H117.416V97.834H108.767V96.5332H119.068ZM114.269 90.873C114.357 91.1807 114.41 91.4971 114.41 91.8398C114.41 92.1738 114.366 92.4902 114.287 92.7891H117.416V90.873H114.269ZM129.94 88.5V92.4902H124.315V94.1777C127.294 94.1689 129.201 94.0898 131.504 93.7383L131.662 95.0039C129.237 95.4082 127.215 95.4961 123.963 95.4961H122.68V91.2773H128.305V89.7832H122.627V88.5H129.94ZM134.932 96.6562V100.523H126.283V102.035H135.459V103.336H124.631V99.293H133.227V97.957H124.578V96.6562H134.932ZM134.932 87.7441V96.0059H133.262V87.7441H134.932ZM155.656 87.7441V103.494H154.003V95.3555H150.47V93.9844H154.003V87.7441H155.656ZM150.523 89.4316C150.505 94.002 148.73 97.9219 143.386 100.576L142.507 99.2578C146.682 97.2188 148.537 94.3799 148.836 90.7676H143.211V89.4316H150.523ZM172.012 87.7441V103.494H170.412V87.7441H172.012ZM168.848 88.043V102.721H167.266V97.6406H164.981C164.418 99.2051 163.372 100.11 162.028 100.102C159.971 100.119 158.635 97.957 158.635 94.5469C158.635 91.1367 159.971 88.9922 162.028 89.0098C163.372 89.001 164.409 89.8975 164.981 91.4531H167.266V88.043H168.848ZM162.028 90.5742C160.867 90.5742 160.164 92.0332 160.164 94.5469C160.164 97.0605 160.867 98.5195 162.028 98.5195C163.188 98.5195 163.926 97.0605 163.926 94.5469C163.926 92.0332 163.188 90.5742 162.028 90.5742ZM165.332 92.8066C165.411 93.3428 165.455 93.9229 165.455 94.5469C165.455 95.1621 165.411 95.7422 165.332 96.2695H167.266V92.8066H165.332ZM188.79 100.137V101.525H174.376V100.137H177.821V96.0234C176.529 95.3115 175.747 94.1777 175.747 92.7715C175.747 90.293 178.173 88.6582 181.548 88.6582C184.94 88.6582 187.366 90.293 187.366 92.7715C187.366 94.1602 186.61 95.2764 185.345 95.9883V100.137H188.79ZM181.548 89.9941C179.069 89.9941 177.364 91.0664 177.364 92.7715C177.364 94.459 179.069 95.5664 181.548 95.5664C184.009 95.5664 185.749 94.459 185.749 92.7715C185.749 91.0664 184.009 89.9941 181.548 89.9941ZM179.473 100.137H183.657V96.6211C183.015 96.7881 182.304 96.8672 181.548 96.8672C180.809 96.8672 180.106 96.7881 179.473 96.6387V100.137ZM193.193 89.2734L193.035 98.3262H191.294L191.136 89.2734H193.193ZM192.173 102.123C191.488 102.123 190.908 101.561 190.925 100.875C190.908 100.189 191.488 99.627 192.173 99.627C192.841 99.627 193.421 100.189 193.421 100.875C193.421 101.561 192.841 102.123 192.173 102.123Z" fill="black"/>
</svg>
