<svg width="195" height="111" viewBox="0 0 195 111" fill="none" xmlns="http://www.w3.org/2000/svg">
<rect width="195" height="108" transform="translate(0 3)" fill="white"/>
<path d="M38.25 68H156.75" stroke="#D9CABF" stroke-width="2.59" stroke-linecap="round"/>
<path d="M104.225 1.59509C115.566 13.6183 114.895 43.5766 96.5368 40.7689C95.6942 40.4407 94.8296 40.5961 94.0548 39.8106C86.6421 38.5536 75.8913 27.1982 98.3001 2.17938L100.428 7.23206C101.566 5.43639 102.828 3.55833 104.225 1.59509Z" fill="#F6B2BB"/>
<path d="M100.963 64.5965C99.8421 63.683 101.75 64.5965 100.428 58M96.5368 40.7689C114.895 43.5766 115.566 13.6183 104.225 1.59509C102.828 3.55833 101.566 5.43639 100.428 7.23206M96.5368 40.7689C95.6942 40.4407 94.8296 40.5961 94.0548 39.8106M96.5368 40.7689C97.25 48.5 98.6298 53.969 100.428 58M94.0548 39.8106C86.6421 38.5536 75.8913 27.1982 98.3001 2.17938L100.428 7.23206M94.0548 39.8106C90.2323 35.9349 88.4297 26.1624 100.428 7.23206M100.428 58C101.805 54.2932 105.802 46.8532 110.773 46.747" stroke="#202020" stroke-width="2" stroke-linejoin="round"/>
<path d="M89.2602 57C98.006 57 101.014 65.6134 101.014 67.9752C101.014 59.032 108.251 59.75 111.25 59.7487C110.5 66.994 105.014 67.578 101.014 67.9752C93.2692 68.7445 89.0129 60.254 89.2602 57Z" fill="#4CB446"/>
<path d="M101.014 67.9752C101.014 65.6134 98.006 57 89.2602 57C89.0129 60.254 93.2692 68.7445 101.014 67.9752ZM101.014 67.9752C105.014 67.578 110.5 66.994 111.25 59.7487C108.251 59.75 101.014 59.032 101.014 67.9752Z" stroke="#202020" stroke-width="2" stroke-linejoin="round"/>
<path d="M13.5142 90.4648V91.7832C13.4966 93.0312 13.4966 94.332 13.0923 95.9668L11.4224 95.7734C11.8443 94.165 11.8443 93.0225 11.8443 91.8008H2.63332V90.4648H13.5142ZM15.2896 96.7754V98.1289H0.963402V96.7754H6.71145V93.9277H8.34621V96.7754H15.2896ZM13.479 99.7109V101.047H4.39114V103.93H13.69V105.283H2.70364V99.7109H13.479ZM29.5975 91.1328V98.4805H22.2322V91.1328H29.5975ZM23.867 92.4863V97.1621H27.9627V92.4863H23.867ZM33.992 89.7266V94.4375H36.2772V95.8438H33.992V101.275H32.3221V89.7266H33.992ZM34.66 103.807V105.16H24.0076V100.168H25.6775V103.807H34.66ZM49.8032 89.7441V95.8438H52.3344V97.2148H49.8032V105.529H48.1332V89.7441H49.8032ZM45.5668 91.2559V92.6094H39.8715V100.221C42.517 100.212 44.5034 100.098 46.7446 99.6934L46.9555 101.1C44.4946 101.539 42.4028 101.627 39.4672 101.609H38.2016V91.2559H45.5668ZM65.7198 89.7441V95.8965H68.2511V97.3027H65.7198V105.529H64.0675V89.7441H65.7198ZM61.2725 91.168V96.9512H55.753V100.361C58.46 100.353 60.4639 100.256 62.7667 99.834L62.9249 101.188C60.4639 101.645 58.337 101.75 55.3839 101.768H54.1007V95.5977H59.6202V92.5215H54.0655V91.168H61.2725ZM82.1462 98.1289V99.4648H71.1775V91.0449H81.988V92.3984H72.865V94.5254H81.654V95.8438H72.865V98.1289H82.1462ZM83.781 102.137V103.508H69.3669V102.137H83.781ZM97.5531 89.7441V96.0195H99.9965V97.4082H97.5531V105.477H95.8832V89.7441H97.5531ZM93.4398 91.3965C93.4222 95.9492 91.4183 100.01 86.2328 102.576L85.3011 101.275C89.2474 99.3066 91.392 96.459 91.7347 92.7852H86.0922V91.3965H93.4398ZM110.314 90.2539C111.668 90.2539 112.81 90.7373 113.548 91.5547H117.416V89.7441H119.068V97.7598H117.416V96.1074H113.584C112.845 96.9512 111.685 97.4434 110.314 97.4434C107.923 97.4434 106.183 95.9844 106.183 93.8398C106.183 91.7305 107.923 90.2539 110.314 90.2539ZM110.314 91.625C108.838 91.6074 107.783 92.5215 107.783 93.8398C107.783 95.1934 108.838 96.0898 110.314 96.1074C111.756 96.0898 112.81 95.1934 112.81 93.8398C112.81 92.5215 111.756 91.6074 110.314 91.625ZM119.068 98.5332V102.453H110.472V103.965H119.631V105.301H108.802V101.205H117.416V99.834H108.767V98.5332H119.068ZM114.269 92.873C114.357 93.1807 114.41 93.4971 114.41 93.8398C114.41 94.1738 114.366 94.4902 114.287 94.7891H117.416V92.873H114.269ZM129.94 90.5V94.4902H124.315V96.1777C127.294 96.1689 129.201 96.0898 131.504 95.7383L131.662 97.0039C129.237 97.4082 127.215 97.4961 123.963 97.4961H122.68V93.2773H128.305V91.7832H122.627V90.5H129.94ZM134.932 98.6562V102.523H126.283V104.035H135.459V105.336H124.631V101.293H133.227V99.957H124.578V98.6562H134.932ZM134.932 89.7441V98.0059H133.262V89.7441H134.932ZM155.656 89.7441V105.494H154.003V97.3555H150.47V95.9844H154.003V89.7441H155.656ZM150.523 91.4316C150.505 96.002 148.73 99.9219 143.386 102.576L142.507 101.258C146.682 99.2188 148.537 96.3799 148.836 92.7676H143.211V91.4316H150.523ZM172.012 89.7441V105.494H170.412V89.7441H172.012ZM168.848 90.043V104.721H167.266V99.6406H164.981C164.418 101.205 163.372 102.11 162.028 102.102C159.971 102.119 158.635 99.957 158.635 96.5469C158.635 93.1367 159.971 90.9922 162.028 91.0098C163.372 91.001 164.409 91.8975 164.981 93.4531H167.266V90.043H168.848ZM162.028 92.5742C160.867 92.5742 160.164 94.0332 160.164 96.5469C160.164 99.0605 160.867 100.52 162.028 100.52C163.188 100.52 163.926 99.0605 163.926 96.5469C163.926 94.0332 163.188 92.5742 162.028 92.5742ZM165.332 94.8066C165.411 95.3428 165.455 95.9229 165.455 96.5469C165.455 97.1621 165.411 97.7422 165.332 98.2695H167.266V94.8066H165.332ZM188.79 102.137V103.525H174.376V102.137H177.821V98.0234C176.529 97.3115 175.747 96.1777 175.747 94.7715C175.747 92.293 178.173 90.6582 181.548 90.6582C184.94 90.6582 187.366 92.293 187.366 94.7715C187.366 96.1602 186.61 97.2764 185.345 97.9883V102.137H188.79ZM181.548 91.9941C179.069 91.9941 177.364 93.0664 177.364 94.7715C177.364 96.459 179.069 97.5664 181.548 97.5664C184.009 97.5664 185.749 96.459 185.749 94.7715C185.749 93.0664 184.009 91.9941 181.548 91.9941ZM179.473 102.137H183.657V98.6211C183.015 98.7881 182.304 98.8672 181.548 98.8672C180.809 98.8672 180.106 98.7881 179.473 98.6387V102.137ZM193.193 91.2734L193.035 100.326H191.294L191.136 91.2734H193.193ZM192.173 104.123C191.488 104.123 190.908 103.561 190.925 102.875C190.908 102.189 191.488 101.627 192.173 101.627C192.841 101.627 193.421 102.189 193.421 102.875C193.421 103.561 192.841 104.123 192.173 104.123Z" fill="black"/>
</svg>
