<svg width="195" height="108" viewBox="0 0 195 108" fill="none" xmlns="http://www.w3.org/2000/svg">
<path fill-rule="evenodd" clip-rule="evenodd" d="M36.7051 64.9981C36.7051 64.2829 37.2849 63.7031 38.0001 63.7031H156.5C157.215 63.7031 157.795 64.2829 157.795 64.9981C157.795 65.7133 157.215 66.2931 156.5 66.2931H38.0001C37.2849 66.2931 36.7051 65.7133 36.7051 64.9981Z" fill="#D9CABF"/>
<path d="M86.2605 57.6433C81.0976 53.4932 78.4959 41.6149 82.8102 37.8714C87.4942 35.3363 97.7758 42.4438 99.4187 48.6757C101.062 54.9075 91.4234 61.7935 86.2605 57.6433Z" fill="#C6906A"/>
<path fill-rule="evenodd" clip-rule="evenodd" d="M82.4065 37.2654L82.4732 37.2293C83.8543 36.4817 85.5715 36.4805 87.3065 36.9091C89.0527 37.3405 90.9034 38.227 92.6339 39.3797C96.0642 41.6647 99.2134 45.1293 100.101 48.496C101.037 52.048 98.7509 55.5984 95.7944 57.6545C92.8341 59.7132 88.7682 60.5737 85.8293 58.2113C83.0636 55.9881 81.0633 51.7907 80.2877 47.7344C79.8972 45.6924 79.8065 43.636 80.1061 41.8251C80.405 40.0191 81.1041 38.3954 82.349 37.3152L82.4065 37.2654ZM83.2139 38.4785C82.3341 39.2729 81.7599 40.5181 81.5002 42.0877C81.2356 43.6866 81.309 45.5611 81.675 47.4753C82.4124 51.3316 84.2945 55.1484 86.6916 57.0753C88.9157 58.8631 92.2504 58.3557 94.9892 56.451C97.7317 54.5437 99.4429 51.5352 98.7364 48.8553C97.9811 45.9901 95.168 42.7851 91.8758 40.5921C90.2451 39.5058 88.5444 38.7013 86.9941 38.3183C85.4683 37.9413 84.1689 37.9909 83.2139 38.4785Z" fill="#202020"/>
<path d="M86.9445 52.7552C86.9475 53.173 86.6196 53.5092 86.2122 53.5062C85.8048 53.5032 85.4721 53.1621 85.4692 52.7444C85.4662 52.3267 85.794 51.9904 86.2014 51.9934C86.6088 51.9964 86.9415 52.3375 86.9445 52.7552Z" fill="#202020"/>
<path d="M90.4802 54.9636C89.2601 55.4876 88.4834 54.2839 87.9112 54.1242C87.078 53.8916 87.001 54.8578 87.9304 55.4876C89.789 56.7466 90.9057 56.1527 91.4093 55.5934C91.9526 54.9902 91.1904 54.544 90.4802 54.9636Z" fill="#202020"/>
<path d="M86.2605 57.6433C81.0976 53.4932 78.4959 41.6149 82.8102 37.8714C87.4942 35.3363 97.7758 42.4438 99.4187 48.6757C101.062 54.9075 91.4234 61.7935 86.2605 57.6433Z" stroke="#202020" stroke-width="0.5"/>
<path fill-rule="evenodd" clip-rule="evenodd" d="M82.4065 37.2654L82.4732 37.2293C83.8543 36.4817 85.5715 36.4805 87.3065 36.9091C89.0527 37.3405 90.9034 38.227 92.6339 39.3797C96.0642 41.6647 99.2134 45.1293 100.101 48.496C101.037 52.048 98.7509 55.5984 95.7944 57.6545C92.8341 59.7132 88.7682 60.5737 85.8293 58.2113C83.0636 55.9881 81.0633 51.7907 80.2877 47.7344C79.8972 45.6924 79.8065 43.636 80.1061 41.8251C80.405 40.0191 81.1041 38.3954 82.349 37.3152L82.4065 37.2654ZM83.2139 38.4785C82.3341 39.2729 81.7599 40.5181 81.5002 42.0877C81.2356 43.6866 81.309 45.5611 81.675 47.4753C82.4124 51.3316 84.2945 55.1484 86.6916 57.0753C88.9157 58.8631 92.2504 58.3557 94.9892 56.451C97.7317 54.5437 99.4429 51.5352 98.7364 48.8553C97.9811 45.9901 95.168 42.7851 91.8758 40.5921C90.2451 39.5058 88.5444 38.7013 86.9941 38.3183C85.4683 37.9413 84.1689 37.9909 83.2139 38.4785Z" stroke="#202020" stroke-width="0.5"/>
<path d="M86.9445 52.7552C86.9475 53.173 86.6196 53.5092 86.2122 53.5062C85.8048 53.5032 85.4721 53.1621 85.4692 52.7444C85.4662 52.3267 85.794 51.9904 86.2014 51.9934C86.6088 51.9964 86.9415 52.3375 86.9445 52.7552Z" stroke="#202020" stroke-width="0.5"/>
<path d="M90.4802 54.9636C89.2601 55.4876 88.4834 54.2839 87.9112 54.1242C87.078 53.8916 87.001 54.8578 87.9304 55.4876C89.789 56.7466 90.9057 56.1527 91.4093 55.5934C91.9526 54.9902 91.1904 54.544 90.4802 54.9636Z" stroke="#202020" stroke-width="0.5"/>
<path d="M105.911 23.2459C112.527 22.4337 122.715 28.9802 122.238 34.7843C120.649 39.9988 108.286 42.4388 102.741 39.2067C97.1962 35.9746 99.2963 24.0581 105.911 23.2459Z" fill="#C6906A"/>
<path fill-rule="evenodd" clip-rule="evenodd" d="M122.952 34.9209L122.929 34.9951C122.461 36.5327 121.228 37.7847 119.682 38.7442C118.126 39.7099 116.175 40.4283 114.125 40.87C110.061 41.7454 105.372 41.5776 102.377 39.8315C99.2163 37.9893 98.372 33.8001 99.0556 30.1845C99.74 26.5645 102.058 22.9904 105.823 22.5281C109.367 22.093 113.744 23.6188 117.142 25.9365C118.852 27.1033 120.358 28.4987 121.411 30.004C122.461 31.5054 123.096 33.1688 122.958 34.8435L122.952 34.9209ZM121.522 34.6469C121.598 33.4413 121.138 32.138 120.226 30.8332C119.296 29.5041 117.93 28.2253 116.327 27.1315C113.096 24.928 109.071 23.5867 106 23.9638C103.15 24.3137 101.11 27.104 100.477 30.4532C99.8428 33.807 100.721 37.192 103.105 38.5819C105.654 40.0679 109.92 40.2961 113.82 39.456C115.753 39.0398 117.538 38.3725 118.919 37.5151C120.279 36.6713 121.178 35.6892 121.522 34.6469Z" fill="#202020"/>
<path d="M108.844 27.2184C108.549 26.9237 108.549 26.4458 108.844 26.1511C109.138 25.8564 109.616 25.8564 109.911 26.1511C110.206 26.4458 110.206 26.9237 109.911 27.2184C109.616 27.5131 109.138 27.5131 108.844 27.2184Z" fill="#202020"/>
<path d="M104.757 28.225C105.267 26.9636 106.668 27.2532 107.191 26.9497C107.952 26.508 107.331 25.7652 106.222 25.9948C104.005 26.4542 103.619 27.69 103.649 28.4544C103.681 29.279 104.541 29.0407 104.757 28.225Z" fill="#202020"/>
<path d="M105.911 23.2459C112.527 22.4337 122.715 28.9802 122.238 34.7843C120.649 39.9988 108.286 42.4388 102.741 39.2067C97.1962 35.9746 99.2963 24.0581 105.911 23.2459Z" stroke="#202020" stroke-width="0.5"/>
<path fill-rule="evenodd" clip-rule="evenodd" d="M122.952 34.9209L122.929 34.9951C122.461 36.5327 121.228 37.7847 119.682 38.7442C118.126 39.7099 116.175 40.4283 114.125 40.87C110.061 41.7454 105.372 41.5776 102.377 39.8315C99.2163 37.9893 98.372 33.8001 99.0556 30.1845C99.74 26.5645 102.058 22.9904 105.823 22.5281C109.367 22.093 113.744 23.6188 117.142 25.9365C118.852 27.1033 120.358 28.4987 121.411 30.004C122.461 31.5054 123.096 33.1688 122.958 34.8435L122.952 34.9209ZM121.522 34.6469C121.598 33.4413 121.138 32.138 120.226 30.8332C119.296 29.5041 117.93 28.2253 116.327 27.1315C113.096 24.928 109.071 23.5867 106 23.9638C103.15 24.3137 101.11 27.104 100.477 30.4532C99.8428 33.807 100.721 37.192 103.105 38.5819C105.654 40.0679 109.92 40.2961 113.82 39.456C115.753 39.0398 117.538 38.3725 118.919 37.5151C120.279 36.6713 121.178 35.6892 121.522 34.6469Z" stroke="#202020" stroke-width="0.5"/>
<path d="M108.844 27.2184C108.549 26.9237 108.549 26.4458 108.844 26.1511C109.138 25.8564 109.616 25.8564 109.911 26.1511C110.206 26.4458 110.206 26.9237 109.911 27.2184C109.616 27.5131 109.138 27.5131 108.844 27.2184Z" stroke="#202020" stroke-width="0.5"/>
<path d="M104.757 28.225C105.267 26.9636 106.668 27.2532 107.191 26.9497C107.952 26.508 107.331 25.7652 106.222 25.9948C104.005 26.4542 103.619 27.69 103.649 28.4544C103.681 29.279 104.541 29.0407 104.757 28.225Z" stroke="#202020" stroke-width="0.5"/>
<path d="M86.35 31.9307C79.7349 32.7429 69.5468 26.1964 70.0238 20.3924C71.6127 15.1778 83.9757 12.7379 89.5205 15.9699C95.0653 19.202 92.9652 31.1185 86.35 31.9307Z" fill="#C6906A"/>
<path fill-rule="evenodd" clip-rule="evenodd" d="M69.3094 20.2558L69.332 20.1816C69.8005 18.6439 71.0331 17.3919 72.5794 16.4324C74.1358 15.4667 76.086 14.7483 78.1364 14.3067C82.2007 13.4312 86.8893 13.5991 89.8847 15.3451C93.0451 17.1873 93.8894 21.3766 93.2059 24.9921C92.5215 28.6122 90.2037 32.1862 86.4382 32.6485C82.8944 33.0836 78.5179 31.5578 75.1198 29.2401C73.4092 28.0733 71.9037 26.678 70.8507 25.1726C69.8004 23.6712 69.1654 22.0079 69.303 20.3331L69.3094 20.2558ZM70.739 20.5297C70.6634 21.7353 71.1231 23.0386 72.0359 24.3435C72.9657 25.6726 74.3313 26.9514 75.9349 28.0451C79.1654 30.2486 83.1905 31.59 86.2619 31.2128C89.1115 30.863 91.1514 28.0726 91.7846 24.7234C92.4187 21.3696 91.5406 17.9846 89.1563 16.5947C86.607 15.1087 82.3416 14.8805 78.441 15.7207C76.5089 16.1368 74.7238 16.8041 73.342 17.6615C71.9821 18.5053 71.0834 19.4874 70.739 20.5297Z" fill="#202020"/>
<path d="M83.4178 27.9582C83.7125 28.2529 83.7125 28.7308 83.4178 29.0255C83.1231 29.3202 82.6452 29.3202 82.3505 29.0255C82.0558 28.7308 82.0558 28.2529 82.3505 27.9582C82.6452 27.6635 83.1231 27.6635 83.4178 27.9582Z" fill="#202020"/>
<path d="M87.5041 26.9516C86.9948 28.213 85.5938 27.9235 85.0709 28.2269C84.3096 28.6687 84.9309 29.4114 86.0396 29.1818C88.2564 28.7224 88.6426 27.4866 88.6126 26.7222C88.5804 25.8976 87.7204 26.1359 87.5041 26.9516Z" fill="#202020"/>
<path d="M86.35 31.9307C79.7349 32.7429 69.5468 26.1964 70.0238 20.3924C71.6127 15.1778 83.9757 12.7379 89.5205 15.9699C95.0653 19.202 92.9652 31.1185 86.35 31.9307Z" stroke="#202020" stroke-width="0.5"/>
<path fill-rule="evenodd" clip-rule="evenodd" d="M69.3094 20.2558L69.332 20.1816C69.8005 18.6439 71.0331 17.3919 72.5794 16.4324C74.1358 15.4667 76.086 14.7483 78.1364 14.3067C82.2007 13.4312 86.8893 13.5991 89.8847 15.3451C93.0451 17.1873 93.8894 21.3766 93.2059 24.9921C92.5215 28.6122 90.2037 32.1862 86.4382 32.6485C82.8944 33.0836 78.5179 31.5578 75.1198 29.2401C73.4092 28.0733 71.9037 26.678 70.8507 25.1726C69.8004 23.6712 69.1654 22.0079 69.303 20.3331L69.3094 20.2558ZM70.739 20.5297C70.6634 21.7353 71.1231 23.0386 72.0359 24.3435C72.9657 25.6726 74.3313 26.9514 75.9349 28.0451C79.1654 30.2486 83.1905 31.59 86.2619 31.2128C89.1115 30.863 91.1514 28.0726 91.7846 24.7234C92.4187 21.3696 91.5406 17.9846 89.1563 16.5947C86.607 15.1087 82.3416 14.8805 78.441 15.7207C76.5089 16.1368 74.7238 16.8041 73.342 17.6615C71.9821 18.5053 71.0834 19.4874 70.739 20.5297Z" stroke="#202020" stroke-width="0.5"/>
<path d="M83.4178 27.9582C83.7125 28.2529 83.7125 28.7308 83.4178 29.0255C83.1231 29.3202 82.6452 29.3202 82.3505 29.0255C82.0558 28.7308 82.0558 28.2529 82.3505 27.9582C82.6452 27.6635 83.1231 27.6635 83.4178 27.9582Z" stroke="#202020" stroke-width="0.5"/>
<path d="M87.5041 26.9516C86.9948 28.213 85.5938 27.9235 85.0709 28.2269C84.3096 28.6687 84.9309 29.4114 86.0396 29.1818C88.2564 28.7224 88.6426 27.4866 88.6126 26.7222C88.5804 25.8976 87.7204 26.1359 87.5041 26.9516Z" stroke="#202020" stroke-width="0.5"/>
<path d="M53.007 87.3945V92.791H48.4718V94.6191H54.8351V95.9727H40.4738V94.6191H46.8195V92.791H42.3019V87.3945H53.007ZM43.9366 88.7129V91.4551H51.3546V88.7129H43.9366ZM53.0773 97.4668V102.494H51.3898V98.7852H42.0734V97.4668H53.0773ZM70.8045 99.2598V100.631H56.3904V99.2598H60.2576V95.7617H57.656V94.4082H60.0115V89.5039H57.6209V88.1328H69.4861V89.5039H67.0779V94.4082H69.4334V95.7617H66.8494V99.2598H70.8045ZM61.6638 94.4082H65.4431V89.5039H61.6638V94.4082ZM61.9275 99.2598H65.1795V95.7617H61.9275V99.2598ZM86.7035 93.9688V95.252H72.2895V93.9688H86.7035ZM84.9281 96.3594V99.8223H75.682V101.123H85.4203V102.301H74.0121V98.7148H83.2758V97.5547H73.9945V96.3594H84.9281ZM84.893 87.1484V90.5586H75.7875V91.7539H85.1566V92.9316H74.1352V89.4512H83.223V88.3262H74.1V87.1484H84.893ZM106.039 86.7617V95.6738H104.369V86.7617H106.039ZM106.039 96.5176V102.301H95.6852V96.5176H106.039ZM97.3376 97.8535V100.947H104.404V97.8535H97.3376ZM98.7087 88.8887C98.6911 91.0156 100.22 92.9316 102.611 93.7402L101.785 95.0234C99.9567 94.417 98.5856 93.1689 97.8649 91.543C97.1618 93.2744 95.7643 94.6543 93.8747 95.3223L93.0485 94.0039C95.5095 93.1777 97.0036 91.0859 97.0036 88.8887V87.3594H98.7087V88.8887ZM121.639 91.3496V92.6855H110.793V87.3066H112.446V91.3496H121.639ZM123.291 94.6719V96.0078H108.877V94.6719H123.291ZM121.744 100.754V102.125H110.67V97.502H112.34V100.754H121.744ZM139.173 94.0391V95.3926H132.81V96.9043C135.701 97.0625 137.415 98.0381 137.415 99.6816C137.415 101.475 135.376 102.477 131.983 102.459C128.556 102.477 126.517 101.475 126.517 99.6816C126.517 98.0381 128.23 97.0625 131.157 96.9043V95.3926H124.811V94.0391H139.173ZM131.983 98.1699C129.575 98.1699 128.204 98.7148 128.204 99.6816C128.204 100.631 129.575 101.193 131.983 101.176C134.356 101.193 135.745 100.631 135.745 99.6816C135.745 98.7148 134.356 98.1699 131.983 98.1699ZM137.89 87.4648V88.8008H133.108C133.346 90.3213 135.561 91.6133 138.435 91.8945L137.837 93.2129C135.112 92.8965 132.853 91.7451 132.001 90.0664C131.122 91.7451 128.872 92.8965 126.147 93.2129L125.567 91.8945C128.397 91.6133 130.621 90.3213 130.858 88.8008H126.13V87.4648H137.89ZM142.521 101.123C141.836 101.123 141.255 100.561 141.273 99.875C141.255 99.1895 141.836 98.627 142.521 98.627C143.189 98.627 143.769 99.1895 143.769 99.875C143.769 100.561 143.189 101.123 142.521 101.123ZM147.627 101.123C146.942 101.123 146.362 100.561 146.379 99.875C146.362 99.1895 146.942 98.627 147.627 98.627C148.295 98.627 148.875 99.1895 148.875 99.875C148.875 100.561 148.295 101.123 147.627 101.123ZM152.733 101.123C152.048 101.123 151.468 100.561 151.485 99.875C151.468 99.1895 152.048 98.627 152.733 98.627C153.401 98.627 153.981 99.1895 153.981 99.875C153.981 100.561 153.401 101.123 152.733 101.123Z" fill="black"/>
</svg>
