<svg width="195" height="108" viewBox="0 0 195 108" fill="none" xmlns="http://www.w3.org/2000/svg">
<path fill-rule="evenodd" clip-rule="evenodd" d="M36.7051 64.9981C36.7051 64.2829 37.2849 63.7031 38.0001 63.7031H156.5C157.215 63.7031 157.795 64.2829 157.795 64.9981C157.795 65.7133 157.215 66.2931 156.5 66.2931H38.0001C37.2849 66.2931 36.7051 65.7133 36.7051 64.9981Z" fill="#D9CABF"/>
<path d="M79.3484 59.3339C80.3611 52.7876 89.3471 44.5953 94.7463 46.4599C99.2837 49.2488 98.2692 61.7067 93.6937 66.2454C89.1182 70.7841 78.3357 65.8803 79.3484 59.3339Z" fill="#C6906A"/>
<path fill-rule="evenodd" clip-rule="evenodd" d="M95.0692 45.8073L95.1338 45.847C96.4718 46.6693 97.3315 48.1559 97.8277 49.8727C98.3272 51.6006 98.4849 53.6466 98.3518 55.7217C98.0882 59.8349 96.6623 64.2945 94.1905 66.7464C91.5825 69.3334 87.3646 69.1285 84.1056 67.5961C80.8426 66.0618 78.0645 62.9709 78.6409 59.2445C79.1834 55.7377 81.8184 51.9067 84.9434 49.2069C86.5166 47.8477 88.252 46.7409 89.9702 46.095C91.6837 45.4508 93.4394 45.2444 94.9973 45.7824L95.0692 45.8073ZM94.4223 47.113C93.2945 46.7484 91.929 46.8737 90.4398 47.4336C88.9229 48.0039 87.3362 49.0047 85.8614 50.2788C82.8904 52.8455 80.5261 56.3838 80.0559 59.4233C79.6196 62.2433 81.7264 64.8775 84.7453 66.297C87.7683 67.7185 91.2294 67.6961 93.197 65.7444C95.3007 63.6576 96.6698 59.6189 96.9229 55.6713C97.0482 53.7159 96.8947 51.8408 96.4512 50.3067C96.0147 48.7969 95.322 47.6963 94.4223 47.113Z" fill="#202020"/>
<path d="M83.9236 57.4822C83.5634 57.6937 83.1083 57.5779 82.9071 57.2236C82.706 56.8692 82.835 56.4106 83.1953 56.1991C83.5556 55.9877 84.0107 56.1035 84.2118 56.4578C84.413 56.8121 84.2839 57.2708 83.9236 57.4822Z" fill="#202020"/>
<path d="M83.779 61.6484C82.7151 60.8538 83.3692 59.5793 83.2214 59.0039C83.0062 58.166 82.131 58.5824 82.0503 59.7022C81.8892 61.9413 82.962 62.6115 83.6981 62.768C84.4922 62.9369 84.4975 62.0537 83.779 61.6484Z" fill="#202020"/>
<path d="M79.3484 59.3339C80.3611 52.7876 89.3471 44.5953 94.7463 46.4599C99.2837 49.2488 98.2692 61.7067 93.6937 66.2454C89.1182 70.7841 78.3357 65.8803 79.3484 59.3339Z" stroke="#202020" stroke-width="0.5"/>
<path fill-rule="evenodd" clip-rule="evenodd" d="M95.0692 45.8073L95.1338 45.847C96.4718 46.6693 97.3315 48.1559 97.8277 49.8727C98.3272 51.6006 98.4849 53.6466 98.3518 55.7217C98.0882 59.8349 96.6623 64.2945 94.1905 66.7464C91.5825 69.3334 87.3646 69.1285 84.1056 67.5961C80.8426 66.0618 78.0645 62.9709 78.6409 59.2445C79.1834 55.7377 81.8184 51.9067 84.9434 49.2069C86.5166 47.8477 88.252 46.7409 89.9702 46.095C91.6837 45.4508 93.4394 45.2444 94.9973 45.7824L95.0692 45.8073ZM94.4223 47.113C93.2945 46.7484 91.929 46.8737 90.4398 47.4336C88.9229 48.0039 87.3362 49.0047 85.8614 50.2788C82.8904 52.8455 80.5261 56.3838 80.0559 59.4233C79.6196 62.2433 81.7264 64.8775 84.7453 66.297C87.7683 67.7185 91.2294 67.6961 93.197 65.7444C95.3007 63.6576 96.6698 59.6189 96.9229 55.6713C97.0482 53.7159 96.8947 51.8408 96.4512 50.3067C96.0147 48.7969 95.322 47.6963 94.4223 47.113Z" stroke="#202020" stroke-width="0.5"/>
<path d="M83.9236 57.4822C83.5634 57.6937 83.1083 57.5779 82.9071 57.2236C82.706 56.8692 82.835 56.4106 83.1953 56.1991C83.5556 55.9877 84.0107 56.1035 84.2118 56.4578C84.413 56.8121 84.2839 57.2708 83.9236 57.4822Z" stroke="#202020" stroke-width="0.5"/>
<path d="M83.779 61.6484C82.7151 60.8538 83.3692 59.5793 83.2214 59.0039C83.0062 58.166 82.131 58.5824 82.0503 59.7022C81.8892 61.9413 82.962 62.6115 83.6981 62.768C84.4922 62.9369 84.4975 62.0537 83.779 61.6484Z" stroke="#202020" stroke-width="0.5"/>
<path d="M107.227 37.0335C112.479 41.1368 115.054 52.97 110.613 56.7368C105.802 59.3005 95.335 52.2838 93.6996 46.0776C92.0643 39.8715 101.976 32.9302 107.227 37.0335Z" fill="#C6906A"/>
<path fill-rule="evenodd" clip-rule="evenodd" d="M111.022 57.3385L110.953 57.375C109.535 58.131 107.778 58.1448 106.006 57.7298C104.222 57.3121 102.335 56.4411 100.573 55.3035C97.0804 53.0487 93.8837 49.6146 93.0003 46.2619C92.0682 42.7245 94.4334 39.1653 97.4733 37.092C100.517 35.0162 104.683 34.1279 107.673 36.4636C110.486 38.6618 112.502 42.8354 113.266 46.877C113.65 48.9117 113.728 50.9628 113.408 52.7719C113.089 54.5762 112.362 56.2014 111.081 57.2883L111.022 57.3385ZM110.204 56.1339C111.11 55.3349 111.707 54.0882 111.984 52.5201C112.266 50.9229 112.205 49.053 111.845 47.1457C111.118 43.3032 109.221 39.5086 106.782 37.6034C104.52 35.8359 101.104 36.3665 98.2883 38.287C95.4685 40.2102 93.6958 43.2246 94.399 45.8934C95.1509 48.7468 98.0055 51.9242 101.358 54.0883C103.018 55.1602 104.752 55.9506 106.336 56.3214C107.894 56.6864 109.224 56.6274 110.204 56.1339Z" fill="#202020"/>
<path d="M106.492 41.9159C106.492 41.4991 106.83 41.1612 107.247 41.1612C107.663 41.1612 108.001 41.4991 108.001 41.9159C108.001 42.3327 107.663 42.6706 107.247 42.6706C106.83 42.6706 106.492 42.3327 106.492 41.9159Z" fill="#202020"/>
<path d="M102.891 39.7382C104.143 39.2064 104.929 40.4018 105.513 40.557C106.364 40.7829 106.45 39.8184 105.503 39.1967C103.611 37.9541 102.464 38.5549 101.945 39.1166C101.384 39.7225 102.161 40.1621 102.891 39.7382Z" fill="#202020"/>
<path d="M107.227 37.0335C112.479 41.1368 115.054 52.97 110.613 56.7368C105.802 59.3005 95.335 52.2838 93.6996 46.0776C92.0643 39.8715 101.976 32.9302 107.227 37.0335Z" stroke="#202020" stroke-width="0.5"/>
<path fill-rule="evenodd" clip-rule="evenodd" d="M111.022 57.3385L110.953 57.375C109.535 58.131 107.778 58.1448 106.006 57.7298C104.222 57.3121 102.335 56.4411 100.573 55.3035C97.0804 53.0487 93.8837 49.6146 93.0003 46.2619C92.0682 42.7245 94.4334 39.1653 97.4733 37.092C100.517 35.0162 104.683 34.1279 107.673 36.4636C110.486 38.6618 112.502 42.8354 113.266 46.877C113.65 48.9117 113.728 50.9628 113.408 52.7719C113.089 54.5762 112.362 56.2014 111.081 57.2883L111.022 57.3385ZM110.204 56.1339C111.11 55.3349 111.707 54.0882 111.984 52.5201C112.266 50.9229 112.205 49.053 111.845 47.1457C111.118 43.3032 109.221 39.5086 106.782 37.6034C104.52 35.8359 101.104 36.3665 98.2883 38.287C95.4685 40.2102 93.6958 43.2246 94.399 45.8934C95.1509 48.7468 98.0055 51.9242 101.358 54.0883C103.018 55.1602 104.752 55.9506 106.336 56.3214C107.894 56.6864 109.224 56.6274 110.204 56.1339Z" stroke="#202020" stroke-width="0.5"/>
<path d="M106.492 41.9159C106.492 41.4991 106.83 41.1612 107.247 41.1612C107.663 41.1612 108.001 41.4991 108.001 41.9159C108.001 42.3327 107.663 42.6706 107.247 42.6706C106.83 42.6706 106.492 42.3327 106.492 41.9159Z" stroke="#202020" stroke-width="0.5"/>
<path d="M102.891 39.7382C104.143 39.2064 104.929 40.4018 105.513 40.557C106.364 40.7829 106.45 39.8184 105.503 39.1967C103.611 37.9541 102.464 38.5549 101.945 39.1166C101.384 39.7225 102.161 40.1621 102.891 39.7382Z" stroke="#202020" stroke-width="0.5"/>
<path d="M76.1261 50.4985C72.1152 45.1757 72.6905 33.0793 77.9555 30.5904C83.2658 29.3591 91.5604 38.8459 91.5338 45.2638C91.5071 51.6818 80.1371 55.8213 76.1261 50.4985Z" fill="#C6906A"/>
<path fill-rule="evenodd" clip-rule="evenodd" d="M77.7166 29.9034L77.7921 29.8859C79.358 29.5228 81.0586 29.9642 82.6627 30.8237C84.2772 31.6887 85.8745 33.0184 87.2822 34.5733C90.0724 37.6553 92.2714 41.7997 92.257 45.2668C92.2418 48.925 89.0359 51.7508 85.563 52.9665C82.0857 54.1839 77.8317 53.9636 75.5485 50.9337C73.3999 48.0823 72.5329 43.5292 72.8411 39.4276C72.9963 37.3627 73.452 35.3613 74.2291 33.6966C75.0042 32.0364 76.1272 30.6547 77.6464 29.9366L77.7166 29.9034ZM78.1941 31.2784C77.1123 31.8158 76.2134 32.8656 75.5398 34.3085C74.8536 35.7782 74.429 37.6003 74.2835 39.5359C73.9905 43.4354 74.8414 47.5919 76.7037 50.0633C78.4315 52.3561 81.868 52.7276 85.0851 51.6013C88.3066 50.4736 90.7991 48.0206 90.8106 45.2608C90.8228 42.31 88.8878 38.502 86.2099 35.544C84.8834 34.0789 83.413 32.8666 81.9796 32.0986C80.5688 31.3428 79.269 31.0556 78.1941 31.2784Z" fill="#202020"/>
<path d="M78.1002 45.9729C77.9924 46.3755 77.5786 46.6144 77.176 46.5065C76.7734 46.3986 76.5344 45.9848 76.6423 45.5822C76.7502 45.1796 77.164 44.9407 77.5666 45.0486C77.9692 45.1564 78.2081 45.5703 78.1002 45.9729Z" fill="#202020"/>
<path d="M81.0152 49.0084C79.6681 49.198 79.2183 47.84 78.6942 47.5389C77.9309 47.1004 77.5983 48.0099 78.3515 48.8553C79.8577 50.5454 81.1211 50.2619 81.7681 49.8537C82.466 49.4135 81.8297 48.7879 81.0152 49.0084Z" fill="#202020"/>
<path d="M76.1261 50.4985C72.1152 45.1757 72.6905 33.0793 77.9555 30.5904C83.2658 29.3591 91.5604 38.8459 91.5338 45.2638C91.5071 51.6818 80.1371 55.8213 76.1261 50.4985Z" stroke="#202020" stroke-width="0.5"/>
<path fill-rule="evenodd" clip-rule="evenodd" d="M77.7166 29.9034L77.7921 29.8859C79.358 29.5228 81.0586 29.9642 82.6627 30.8237C84.2772 31.6887 85.8745 33.0184 87.2822 34.5733C90.0724 37.6553 92.2714 41.7997 92.257 45.2668C92.2418 48.925 89.0359 51.7508 85.563 52.9665C82.0857 54.1839 77.8317 53.9636 75.5485 50.9337C73.3999 48.0823 72.5329 43.5292 72.8411 39.4276C72.9963 37.3627 73.452 35.3613 74.2291 33.6966C75.0042 32.0364 76.1272 30.6547 77.6464 29.9366L77.7166 29.9034ZM78.1941 31.2784C77.1123 31.8158 76.2134 32.8656 75.5398 34.3085C74.8536 35.7782 74.429 37.6003 74.2835 39.5359C73.9905 43.4354 74.8414 47.5919 76.7037 50.0633C78.4315 52.3561 81.868 52.7276 85.0851 51.6013C88.3066 50.4736 90.7991 48.0206 90.8106 45.2608C90.8228 42.31 88.8878 38.502 86.2099 35.544C84.8834 34.0789 83.413 32.8666 81.9796 32.0986C80.5688 31.3428 79.269 31.0556 78.1941 31.2784Z" stroke="#202020" stroke-width="0.5"/>
<path d="M78.1002 45.9729C77.9924 46.3755 77.5786 46.6144 77.176 46.5065C76.7734 46.3986 76.5344 45.9848 76.6423 45.5822C76.7502 45.1796 77.164 44.9407 77.5666 45.0486C77.9692 45.1564 78.2081 45.5703 78.1002 45.9729Z" stroke="#202020" stroke-width="0.5"/>
<path d="M81.0152 49.0084C79.6681 49.198 79.2183 47.84 78.6942 47.5389C77.9309 47.1004 77.5983 48.0099 78.3515 48.8553C79.8577 50.5454 81.1211 50.2619 81.7681 49.8537C82.466 49.4135 81.8297 48.7879 81.0152 49.0084Z" stroke="#202020" stroke-width="0.5"/>
<path d="M53.007 87.3945V92.791H48.4718V94.6191H54.8351V95.9727H40.4738V94.6191H46.8195V92.791H42.3019V87.3945H53.007ZM43.9366 88.7129V91.4551H51.3546V88.7129H43.9366ZM53.0773 97.4668V102.494H51.3898V98.7852H42.0734V97.4668H53.0773ZM70.8045 99.2598V100.631H56.3904V99.2598H60.2576V95.7617H57.656V94.4082H60.0115V89.5039H57.6209V88.1328H69.4861V89.5039H67.0779V94.4082H69.4334V95.7617H66.8494V99.2598H70.8045ZM61.6638 94.4082H65.4431V89.5039H61.6638V94.4082ZM61.9275 99.2598H65.1795V95.7617H61.9275V99.2598ZM86.7035 93.9688V95.252H72.2895V93.9688H86.7035ZM84.9281 96.3594V99.8223H75.682V101.123H85.4203V102.301H74.0121V98.7148H83.2758V97.5547H73.9945V96.3594H84.9281ZM84.893 87.1484V90.5586H75.7875V91.7539H85.1566V92.9316H74.1352V89.4512H83.223V88.3262H74.1V87.1484H84.893ZM106.039 86.7617V95.6738H104.369V86.7617H106.039ZM106.039 96.5176V102.301H95.6852V96.5176H106.039ZM97.3376 97.8535V100.947H104.404V97.8535H97.3376ZM98.7087 88.8887C98.6911 91.0156 100.22 92.9316 102.611 93.7402L101.785 95.0234C99.9567 94.417 98.5856 93.1689 97.8649 91.543C97.1618 93.2744 95.7643 94.6543 93.8747 95.3223L93.0485 94.0039C95.5095 93.1777 97.0036 91.0859 97.0036 88.8887V87.3594H98.7087V88.8887ZM121.639 91.3496V92.6855H110.793V87.3066H112.446V91.3496H121.639ZM123.291 94.6719V96.0078H108.877V94.6719H123.291ZM121.744 100.754V102.125H110.67V97.502H112.34V100.754H121.744ZM139.173 94.0391V95.3926H132.81V96.9043C135.701 97.0625 137.415 98.0381 137.415 99.6816C137.415 101.475 135.376 102.477 131.983 102.459C128.556 102.477 126.517 101.475 126.517 99.6816C126.517 98.0381 128.23 97.0625 131.157 96.9043V95.3926H124.811V94.0391H139.173ZM131.983 98.1699C129.575 98.1699 128.204 98.7148 128.204 99.6816C128.204 100.631 129.575 101.193 131.983 101.176C134.356 101.193 135.745 100.631 135.745 99.6816C135.745 98.7148 134.356 98.1699 131.983 98.1699ZM137.89 87.4648V88.8008H133.108C133.346 90.3213 135.561 91.6133 138.435 91.8945L137.837 93.2129C135.112 92.8965 132.853 91.7451 132.001 90.0664C131.122 91.7451 128.872 92.8965 126.147 93.2129L125.567 91.8945C128.397 91.6133 130.621 90.3213 130.858 88.8008H126.13V87.4648H137.89ZM142.521 101.123C141.836 101.123 141.255 100.561 141.273 99.875C141.255 99.1895 141.836 98.627 142.521 98.627C143.189 98.627 143.769 99.1895 143.769 99.875C143.769 100.561 143.189 101.123 142.521 101.123ZM147.627 101.123C146.942 101.123 146.362 100.561 146.379 99.875C146.362 99.1895 146.942 98.627 147.627 98.627C148.295 98.627 148.875 99.1895 148.875 99.875C148.875 100.561 148.295 101.123 147.627 101.123ZM152.733 101.123C152.048 101.123 151.468 100.561 151.485 99.875C151.468 99.1895 152.048 98.627 152.733 98.627C153.401 98.627 153.981 99.1895 153.981 99.875C153.981 100.561 153.401 101.123 152.733 101.123Z" fill="black"/>
</svg>
