<svg width="195" height="108" viewBox="0 0 195 108" fill="none" xmlns="http://www.w3.org/2000/svg">
<path fill-rule="evenodd" clip-rule="evenodd" d="M36.7051 64.9981C36.7051 64.2829 37.2849 63.7031 38.0001 63.7031H156.5C157.215 63.7031 157.795 64.2829 157.795 64.9981C157.795 65.7133 157.215 66.2931 156.5 66.2931H38.0001C37.2849 66.2931 36.7051 65.7133 36.7051 64.9981Z" fill="#D9CABF"/>
<path d="M101.827 46.7364C96.482 50.6493 84.3351 50.088 81.8358 44.9518C80.5993 39.7713 90.1257 31.6796 96.5705 31.7056C103.015 31.7316 107.172 42.8236 101.827 46.7364Z" fill="#C6906A"/>
<path fill-rule="evenodd" clip-rule="evenodd" d="M81.1459 45.1849L81.1283 45.1112C80.7637 43.5836 81.2069 41.9246 82.07 40.3597C82.9386 38.7847 84.2739 37.2265 85.8352 35.8532C88.9302 33.1312 93.0919 30.986 96.5735 31.0001C100.247 31.0149 103.084 34.1423 104.305 37.5303C105.528 40.9226 105.307 45.0726 102.264 47.2999C99.4007 49.396 94.8286 50.2417 90.7098 49.9411C88.6363 49.7897 86.6265 49.3452 84.9549 48.5871C83.2877 47.8309 81.9004 46.7354 81.1792 45.2533L81.1459 45.1849ZM82.5266 44.719C83.0663 45.7744 84.1204 46.6513 85.5694 47.3085C87.0452 47.9778 88.8749 48.3921 90.8186 48.534C94.7344 48.8198 98.9082 47.9897 101.39 46.173C103.692 44.4874 104.065 41.135 102.934 37.9966C101.802 34.8539 99.3388 32.4223 96.5674 32.4111C93.6043 32.3992 89.7804 34.2869 86.8101 36.8993C85.3388 38.1933 84.1215 39.6278 83.3503 41.0261C82.5913 42.4024 82.3029 43.6704 82.5266 44.719Z" fill="#202020"/>
<path d="M97.2824 44.8106C97.6867 44.9158 97.9266 45.3195 97.8183 45.7123C97.71 46.105 97.2944 46.3381 96.8902 46.2329C96.4859 46.1276 96.246 45.7239 96.3543 45.3312C96.4626 44.9384 96.8782 44.7054 97.2824 44.8106Z" fill="#202020"/>
<path d="M100.331 41.967C100.521 43.2811 99.1574 43.7198 98.855 44.2312C98.4147 44.9758 99.328 45.3003 100.177 44.5655C101.874 43.0961 101.589 41.8637 101.18 41.2325C100.737 40.5516 100.109 41.1723 100.331 41.967Z" fill="#202020"/>
<path d="M101.827 46.7364C96.482 50.6493 84.3351 50.088 81.8358 44.9518C80.5993 39.7713 90.1257 31.6796 96.5705 31.7056C103.015 31.7316 107.172 42.8236 101.827 46.7364Z" stroke="#202020" stroke-width="0.5"/>
<path fill-rule="evenodd" clip-rule="evenodd" d="M81.1459 45.1849L81.1283 45.1112C80.7637 43.5836 81.2069 41.9246 82.07 40.3597C82.9386 38.7847 84.2739 37.2265 85.8352 35.8532C88.9302 33.1312 93.0919 30.986 96.5735 31.0001C100.247 31.0149 103.084 34.1423 104.305 37.5303C105.528 40.9226 105.307 45.0726 102.264 47.2999C99.4007 49.396 94.8286 50.2417 90.7098 49.9411C88.6363 49.7897 86.6265 49.3452 84.9549 48.5871C83.2877 47.8309 81.9004 46.7354 81.1792 45.2533L81.1459 45.1849ZM82.5266 44.719C83.0663 45.7744 84.1204 46.6513 85.5694 47.3085C87.0452 47.9778 88.8749 48.3921 90.8186 48.534C94.7344 48.8198 98.9082 47.9897 101.39 46.173C103.692 44.4874 104.065 41.135 102.934 37.9966C101.802 34.8539 99.3388 32.4223 96.5674 32.4111C93.6043 32.3992 89.7804 34.2869 86.8101 36.8993C85.3388 38.1933 84.1215 39.6278 83.3503 41.0261C82.5913 42.4024 82.3029 43.6704 82.5266 44.719Z" stroke="#202020" stroke-width="0.5"/>
<path d="M97.2824 44.8106C97.6867 44.9158 97.9266 45.3195 97.8183 45.7123C97.71 46.105 97.2944 46.3381 96.8902 46.2329C96.4859 46.1276 96.246 45.7239 96.3543 45.3312C96.4626 44.9384 96.8782 44.7054 97.2824 44.8106Z" stroke="#202020" stroke-width="0.5"/>
<path d="M100.331 41.967C100.521 43.2811 99.1574 43.7198 98.855 44.2312C98.4147 44.9758 99.328 45.3003 100.177 44.5655C101.874 43.0961 101.589 41.8637 101.18 41.2325C100.737 40.5516 100.109 41.1723 100.331 41.967Z" stroke="#202020" stroke-width="0.5"/>
<path d="M94.5694 21.6503C94.5208 14.9857 102.192 5.61513 107.903 6.75432C112.901 8.93042 113.908 21.4917 110.061 26.6294C106.215 31.7672 94.6179 28.315 94.5694 21.6503Z" fill="#C6906A"/>
<path fill-rule="evenodd" clip-rule="evenodd" d="M108.121 6.06025L108.192 6.09122C109.666 6.7329 110.768 8.10086 111.544 9.74701C112.325 11.4039 112.815 13.4235 113.019 15.511C113.423 19.6489 112.718 24.2873 110.64 27.0629C108.448 29.9913 104.19 30.3498 100.676 29.2563C97.1586 28.1615 93.8738 25.4493 93.8462 21.6556C93.8201 18.0853 95.8375 13.9125 98.5295 10.8026C99.8847 9.23691 101.443 7.90135 103.06 7.02778C104.671 6.15653 106.397 5.71636 108.045 6.04507L108.121 6.06025ZM107.685 7.449C106.496 7.23578 105.148 7.54303 103.747 8.30024C102.32 9.07151 100.894 10.2815 99.6232 11.7492C97.0639 14.7059 95.27 18.5506 95.2926 21.645C95.3135 24.516 97.8516 26.8623 101.106 27.8752C104.365 28.8896 107.829 28.4053 109.483 26.196C111.251 23.8338 111.967 19.6228 111.579 15.6515C111.387 13.6844 110.929 11.8347 110.236 10.3637C109.553 8.91597 108.681 7.91069 107.685 7.449Z" fill="#202020"/>
<path d="M98.8518 19.1927C98.5252 19.4517 98.0505 19.397 97.7915 19.0704C97.5325 18.7438 97.5873 18.2692 97.9139 18.0102C98.2404 17.7512 98.7151 17.8059 98.9741 18.1325C99.2331 18.4591 99.1783 18.9338 98.8518 19.1927Z" fill="#202020"/>
<path d="M99.3834 23.3675C98.1886 22.717 98.6368 21.3584 98.3954 20.8042C98.0438 19.9972 97.2347 20.5294 97.3357 21.6571C97.5379 23.9119 98.7213 24.4372 99.4841 24.495C100.307 24.5575 100.169 23.6759 99.3834 23.3675Z" fill="#202020"/>
<path d="M94.5694 21.6503C94.5208 14.9857 102.192 5.61513 107.903 6.75432C112.901 8.93042 113.908 21.4917 110.061 26.6294C106.215 31.7672 94.6179 28.315 94.5694 21.6503Z" stroke="#202020" stroke-width="0.5"/>
<path fill-rule="evenodd" clip-rule="evenodd" d="M108.121 6.06025L108.192 6.09122C109.666 6.7329 110.768 8.10086 111.544 9.74701C112.325 11.4039 112.815 13.4235 113.019 15.511C113.423 19.6489 112.718 24.2873 110.64 27.0629C108.448 29.9913 104.19 30.3498 100.676 29.2563C97.1586 28.1615 93.8738 25.4493 93.8462 21.6556C93.8201 18.0853 95.8375 13.9125 98.5295 10.8026C99.8847 9.23691 101.443 7.90135 103.06 7.02778C104.671 6.15653 106.397 5.71636 108.045 6.04507L108.121 6.06025ZM107.685 7.449C106.496 7.23578 105.148 7.54303 103.747 8.30024C102.32 9.07151 100.894 10.2815 99.6232 11.7492C97.0639 14.7059 95.27 18.5506 95.2926 21.645C95.3135 24.516 97.8516 26.8623 101.106 27.8752C104.365 28.8896 107.829 28.4053 109.483 26.196C111.251 23.8338 111.967 19.6228 111.579 15.6515C111.387 13.6844 110.929 11.8347 110.236 10.3637C109.553 8.91597 108.681 7.91069 107.685 7.449Z" stroke="#202020" stroke-width="0.5"/>
<path d="M98.8518 19.1927C98.5252 19.4517 98.0505 19.397 97.7915 19.0704C97.5325 18.7438 97.5873 18.2692 97.9139 18.0102C98.2404 17.7512 98.7151 17.8059 98.9741 18.1325C99.2331 18.4591 99.1783 18.9338 98.8518 19.1927Z" stroke="#202020" stroke-width="0.5"/>
<path d="M99.3834 23.3675C98.1886 22.717 98.6368 21.3584 98.3954 20.8042C98.0438 19.9972 97.2347 20.5294 97.3357 21.6571C97.5379 23.9119 98.7213 24.4372 99.4841 24.495C100.307 24.5575 100.169 23.6759 99.3834 23.3675Z" stroke="#202020" stroke-width="0.5"/>
<path d="M91.3164 12.24C91.6123 18.8983 84.2944 28.5472 78.5449 27.6208C73.4695 25.6317 71.9971 13.1165 75.6501 7.8395C79.303 2.5625 91.0204 5.58177 91.3164 12.24Z" fill="#C6906A"/>
<path fill-rule="evenodd" clip-rule="evenodd" d="M78.3532 28.3225L78.281 28.2941C76.7844 27.7076 75.6319 26.3815 74.7954 24.7653C73.9535 23.1386 73.3887 21.1385 73.1077 19.06C72.5505 14.94 73.082 10.2786 75.0554 7.42786C77.1375 4.42006 81.3797 3.90368 84.9312 4.86599C88.4872 5.82951 91.8704 8.41783 92.0389 12.2079C92.1974 15.7747 90.3363 20.0196 87.7617 23.2273C86.4656 24.8422 84.9575 26.2347 83.3749 27.1677C81.7965 28.0982 80.0889 28.6021 78.4298 28.3348L78.3532 28.3225ZM78.7374 26.9185C79.9334 27.0874 81.2685 26.7303 82.6403 25.9216C84.0376 25.0979 85.4186 23.8358 86.6337 22.3219C89.0814 19.2723 90.7313 15.3636 90.5939 12.2721C90.4664 9.40398 87.8429 7.15353 84.5529 6.2621C81.2585 5.36946 77.8155 5.98195 76.2447 8.25114C74.5652 10.6774 74.0064 14.9121 74.5411 18.8662C74.8059 20.8248 75.3325 22.6563 76.08 24.1005C76.8156 25.5219 77.7249 26.4941 78.7374 26.9185Z" fill="#202020"/>
<path d="M87.1282 14.8549C87.4449 14.5839 87.9213 14.6211 88.1922 14.9378C88.4632 15.2545 88.4261 15.7309 88.1093 16.0018C87.7926 16.2728 87.3162 16.2357 87.0453 15.9189C86.7743 15.6022 86.8114 15.1258 87.1282 14.8549Z" fill="#202020"/>
<path d="M86.442 10.7027C87.66 11.3085 87.2625 12.6827 87.5244 13.2276C87.9057 14.021 88.6945 13.4592 88.5517 12.336C88.2659 10.0902 87.0638 9.60924 86.2994 9.57974C85.4748 9.54787 85.6455 10.4237 86.442 10.7027Z" fill="#202020"/>
<path d="M91.3164 12.24C91.6123 18.8983 84.2944 28.5472 78.5449 27.6208C73.4695 25.6317 71.9971 13.1165 75.6501 7.8395C79.303 2.5625 91.0204 5.58177 91.3164 12.24Z" stroke="#202020" stroke-width="0.5"/>
<path fill-rule="evenodd" clip-rule="evenodd" d="M78.3532 28.3225L78.281 28.2941C76.7844 27.7076 75.6319 26.3815 74.7954 24.7653C73.9535 23.1386 73.3887 21.1385 73.1077 19.06C72.5505 14.94 73.082 10.2786 75.0554 7.42786C77.1375 4.42006 81.3797 3.90368 84.9312 4.86599C88.4872 5.82951 91.8704 8.41783 92.0389 12.2079C92.1974 15.7747 90.3363 20.0196 87.7617 23.2273C86.4656 24.8422 84.9575 26.2347 83.3749 27.1677C81.7965 28.0982 80.0889 28.6021 78.4298 28.3348L78.3532 28.3225ZM78.7374 26.9185C79.9334 27.0874 81.2685 26.7303 82.6403 25.9216C84.0376 25.0979 85.4186 23.8358 86.6337 22.3219C89.0814 19.2723 90.7313 15.3636 90.5939 12.2721C90.4664 9.40398 87.8429 7.15353 84.5529 6.2621C81.2585 5.36946 77.8155 5.98195 76.2447 8.25114C74.5652 10.6774 74.0064 14.9121 74.5411 18.8662C74.8059 20.8248 75.3325 22.6563 76.08 24.1005C76.8156 25.5219 77.7249 26.4941 78.7374 26.9185Z" stroke="#202020" stroke-width="0.5"/>
<path d="M87.1282 14.8549C87.4449 14.5839 87.9213 14.6211 88.1922 14.9378C88.4632 15.2545 88.4261 15.7309 88.1093 16.0018C87.7926 16.2728 87.3162 16.2357 87.0453 15.9189C86.7743 15.6022 86.8114 15.1258 87.1282 14.8549Z" stroke="#202020" stroke-width="0.5"/>
<path d="M86.442 10.7027C87.66 11.3085 87.2625 12.6827 87.5244 13.2276C87.9057 14.021 88.6945 13.4592 88.5517 12.336C88.2659 10.0902 87.0638 9.60924 86.2994 9.57974C85.4748 9.54787 85.6455 10.4237 86.442 10.7027Z" stroke="#202020" stroke-width="0.5"/>
<path d="M53.007 87.3945V92.791H48.4718V94.6191H54.8351V95.9727H40.4738V94.6191H46.8195V92.791H42.3019V87.3945H53.007ZM43.9366 88.7129V91.4551H51.3546V88.7129H43.9366ZM53.0773 97.4668V102.494H51.3898V98.7852H42.0734V97.4668H53.0773ZM70.8045 99.2598V100.631H56.3904V99.2598H60.2576V95.7617H57.656V94.4082H60.0115V89.5039H57.6209V88.1328H69.4861V89.5039H67.0779V94.4082H69.4334V95.7617H66.8494V99.2598H70.8045ZM61.6638 94.4082H65.4431V89.5039H61.6638V94.4082ZM61.9275 99.2598H65.1795V95.7617H61.9275V99.2598ZM86.7035 93.9688V95.252H72.2895V93.9688H86.7035ZM84.9281 96.3594V99.8223H75.682V101.123H85.4203V102.301H74.0121V98.7148H83.2758V97.5547H73.9945V96.3594H84.9281ZM84.893 87.1484V90.5586H75.7875V91.7539H85.1566V92.9316H74.1352V89.4512H83.223V88.3262H74.1V87.1484H84.893ZM106.039 86.7617V95.6738H104.369V86.7617H106.039ZM106.039 96.5176V102.301H95.6852V96.5176H106.039ZM97.3376 97.8535V100.947H104.404V97.8535H97.3376ZM98.7087 88.8887C98.6911 91.0156 100.22 92.9316 102.611 93.7402L101.785 95.0234C99.9567 94.417 98.5856 93.1689 97.8649 91.543C97.1618 93.2744 95.7643 94.6543 93.8747 95.3223L93.0485 94.0039C95.5095 93.1777 97.0036 91.0859 97.0036 88.8887V87.3594H98.7087V88.8887ZM121.639 91.3496V92.6855H110.793V87.3066H112.446V91.3496H121.639ZM123.291 94.6719V96.0078H108.877V94.6719H123.291ZM121.744 100.754V102.125H110.67V97.502H112.34V100.754H121.744ZM139.173 94.0391V95.3926H132.81V96.9043C135.701 97.0625 137.415 98.0381 137.415 99.6816C137.415 101.475 135.376 102.477 131.983 102.459C128.556 102.477 126.517 101.475 126.517 99.6816C126.517 98.0381 128.23 97.0625 131.157 96.9043V95.3926H124.811V94.0391H139.173ZM131.983 98.1699C129.575 98.1699 128.204 98.7148 128.204 99.6816C128.204 100.631 129.575 101.193 131.983 101.176C134.356 101.193 135.745 100.631 135.745 99.6816C135.745 98.7148 134.356 98.1699 131.983 98.1699ZM137.89 87.4648V88.8008H133.108C133.346 90.3213 135.561 91.6133 138.435 91.8945L137.837 93.2129C135.112 92.8965 132.853 91.7451 132.001 90.0664C131.122 91.7451 128.872 92.8965 126.147 93.2129L125.567 91.8945C128.397 91.6133 130.621 90.3213 130.858 88.8008H126.13V87.4648H137.89ZM142.521 101.123C141.836 101.123 141.255 100.561 141.273 99.875C141.255 99.1895 141.836 98.627 142.521 98.627C143.189 98.627 143.769 99.1895 143.769 99.875C143.769 100.561 143.189 101.123 142.521 101.123ZM147.627 101.123C146.942 101.123 146.362 100.561 146.379 99.875C146.362 99.1895 146.942 98.627 147.627 98.627C148.295 98.627 148.875 99.1895 148.875 99.875C148.875 100.561 148.295 101.123 147.627 101.123ZM152.733 101.123C152.048 101.123 151.468 100.561 151.485 99.875C151.468 99.1895 152.048 98.627 152.733 98.627C153.401 98.627 153.981 99.1895 153.981 99.875C153.981 100.561 153.401 101.123 152.733 101.123Z" fill="black"/>
</svg>
