<svg width="195" height="108" viewBox="0 0 195 108" fill="none" xmlns="http://www.w3.org/2000/svg">
<path d="M38.5 65H157" stroke="#D9CABF" stroke-width="2.59" stroke-linecap="round"/>
<path d="M75.5204 15C93.0202 15 99.0395 32.2349 99.0395 36.9606C99.0395 19.0659 113.521 20.5026 119.521 20.5C118.021 34.9974 107.042 36.1658 99.0395 36.9606C83.5421 38.4999 75.0256 21.511 75.5204 15Z" fill="#4CB446"/>
<path d="M99.0395 61.5C100.524 57.0893 103.042 49.5 99.0395 36.9606M99.0395 36.9606C99.0395 32.2349 93.0202 15 75.5204 15C75.0256 21.511 83.5421 38.4999 99.0395 36.9606ZM99.0395 36.9606C107.042 36.1658 118.021 34.9974 119.521 20.5C113.521 20.5026 99.0395 19.0659 99.0395 36.9606Z" stroke="#202020" stroke-width="2" stroke-linejoin="round"/>
<path d="M99 67C84.2001 67 76.5 58 74.5 53.5L84 55C85.2 53 86 53.5 86.5 49L100.5 57.5C105 57 110.833 52.1667 111 51L116 55L119.5 53.5C118.833 58 113.8 67 99 67Z" fill="#C5906A"/>
<path d="M100.5 57.5C105 57 110.833 52.1667 111 51L116 55L119.5 53.5C118.833 58 113.8 67 99 67C84.2001 67 76.5 58 74.5 53.5L84 55C85.2 53 86 53.5 86.5 49L100.5 57.5ZM100.5 57.5L102.5 59.5" stroke="#202020" stroke-width="2" stroke-linecap="round" stroke-linejoin="round"/>
<path d="M27.7567 86.7441V102.494H26.1747V86.7441H27.7567ZM24.5399 87.1484V101.721H22.9579V96.3594H20.2684V94.9883H22.9579V92.4219H20.5321C19.7674 95.0674 18.0887 97.3613 15.118 99.1367L14.1336 97.9414C17.4735 95.9551 19.0819 93.3096 19.3719 90.0664H14.9071V88.6953H21.0243C21.0243 89.5039 20.9627 90.2861 20.8309 91.0508H22.9579V87.1484H24.5399ZM40.0347 88.0977V89.3457H30.7182V88.0977H34.5327V86.6387H36.2026V88.0977H40.0347ZM35.3764 89.873C37.6616 89.8555 39.2085 90.7695 39.2085 92.2285C39.2085 93.4854 38.0307 94.3291 36.2026 94.5137V95.4629C37.6001 95.3926 39.0063 95.2871 40.3159 95.1113L40.4389 96.2715C37.0288 96.834 33.2671 96.8867 30.437 96.8867L30.2085 95.5859C31.5005 95.5859 32.9946 95.5771 34.5327 95.5332V94.5137C32.7046 94.3291 31.5444 93.4854 31.562 92.2285C31.5444 90.7695 33.0737 89.8555 35.3764 89.873ZM35.3764 91.0156C34.0229 90.998 33.144 91.4551 33.144 92.2285C33.144 92.9492 34.0229 93.4062 35.3764 93.4062C36.7124 93.4062 37.6089 92.9492 37.6089 92.2285C37.6089 91.4551 36.7124 90.998 35.3764 91.0156ZM43.1987 86.7793V97.3262H41.5288V86.7793H43.1987ZM43.1987 98.0293V102.494H41.5288V99.3301H32.4761V98.0293H43.1987ZM59.0978 86.7441V102.529H57.4279V86.7441H59.0978ZM50.6779 87.9219C53.0157 87.9219 54.7384 90.0664 54.7384 93.4414C54.7384 96.834 53.0157 98.9785 50.6779 98.9785C48.3048 98.9785 46.5997 96.834 46.5997 93.4414C46.5997 90.0664 48.3048 87.9219 50.6779 87.9219ZM50.6779 89.416C49.2189 89.416 48.2169 90.9629 48.2169 93.4414C48.2169 95.9375 49.2189 97.4844 50.6779 97.4844C52.1193 97.4844 53.1212 95.9375 53.1212 93.4414C53.1212 90.9629 52.1193 89.416 50.6779 89.416ZM72.2104 91.3848C72.2104 93.8809 73.8451 96.6582 76.2357 97.7832L75.2865 99.084C73.5199 98.2314 72.1225 96.4561 71.4193 94.3906C70.6898 96.6494 69.2133 98.5918 67.4115 99.4883L66.4272 98.1699C68.8178 97.0273 70.558 94.0566 70.558 91.3848V89.7148H67.0072V88.3262H75.6381V89.7148H72.2104V91.3848ZM78.9955 86.7441V92.9844H81.5268V94.3906H78.9955V102.494H77.3256V86.7441H78.9955ZM94.9122 86.7441V92.8965H97.4434V94.3027H94.9122V102.529H93.2598V86.7441H94.9122ZM90.4649 88.168V93.9512H84.9454V97.3613C87.6524 97.3525 89.6563 97.2559 91.959 96.834L92.1172 98.1875C89.6563 98.6445 87.5293 98.75 84.5762 98.7676H83.293V92.5977H88.8125V89.5215H83.2579V88.168H90.4649ZM111.303 88.2559V89.8027C111.303 91.7539 111.303 93.9336 110.706 97.1504L109.018 96.9746C109.633 93.9336 109.633 91.7012 109.633 89.8027V89.6094H100.071V88.2559H111.303ZM112.921 98.9785V100.367H98.5593V98.9785H104.026V93.4238H105.678V98.9785H112.921ZM124.697 97.1504C124.697 98.5039 125.365 99.9365 126.789 100.789C128.239 99.8662 128.951 98.3545 128.951 97.1504V96.3945H130.586V97.1504C130.586 98.7852 131.658 100.367 133.715 101.035L132.889 102.266C131.333 101.729 130.278 100.684 129.725 99.3828C129.224 100.657 128.283 101.809 126.842 102.406C125.33 101.835 124.372 100.719 123.889 99.4355C123.317 100.675 122.28 101.721 120.795 102.266L119.951 101.035C121.973 100.314 123.062 98.6797 123.08 97.1504V96.3945H124.697V97.1504ZM132.291 86.7617V95.7266H130.621V86.7617H132.291ZM123.748 87.623C126.156 87.623 127.932 89.1523 127.932 91.3496C127.932 93.5293 126.156 95.041 123.748 95.041C121.34 95.041 119.547 93.5293 119.547 91.3496C119.547 89.1523 121.34 87.623 123.748 87.623ZM123.748 89.0469C122.254 89.0293 121.182 89.9609 121.182 91.3496C121.182 92.7207 122.254 93.6523 123.748 93.6523C125.225 93.6523 126.297 92.7207 126.297 91.3496C126.297 89.9609 125.225 89.0293 123.748 89.0469ZM139.419 87.9219C141.554 87.9219 143.119 89.7324 143.374 92.6504H146.626V86.7441H148.278V102.529H146.626V94.0039H143.391C143.207 97.0713 141.607 98.9785 139.419 98.9785C137.063 98.9785 135.411 96.834 135.428 93.4414C135.411 90.0664 137.063 87.9219 139.419 87.9219ZM139.419 89.416C137.995 89.416 137.01 90.9629 137.01 93.4414C137.01 95.9375 137.995 97.4844 139.419 97.4844C140.842 97.4844 141.827 95.9375 141.827 93.4414C141.827 90.9629 140.842 89.416 139.419 89.416ZM165.478 99.1367V100.525H151.064V99.1367H154.509V95.0234C153.217 94.3115 152.435 93.1777 152.435 91.7715C152.435 89.293 154.861 87.6582 158.236 87.6582C161.628 87.6582 164.054 89.293 164.054 91.7715C164.054 93.1602 163.298 94.2764 162.032 94.9883V99.1367H165.478ZM158.236 88.9941C155.757 88.9941 154.052 90.0664 154.052 91.7715C154.052 93.459 155.757 94.5664 158.236 94.5664C160.697 94.5664 162.437 93.459 162.437 91.7715C162.437 90.0664 160.697 88.9941 158.236 88.9941ZM156.161 99.1367H160.345V95.6211C159.703 95.7881 158.991 95.8672 158.236 95.8672C157.497 95.8672 156.794 95.7881 156.161 95.6387V99.1367ZM168.773 101.123C168.088 101.123 167.508 100.561 167.525 99.875C167.508 99.1895 168.088 98.627 168.773 98.627C169.441 98.627 170.021 99.1895 170.021 99.875C170.021 100.561 169.441 101.123 168.773 101.123ZM173.879 101.123C173.194 101.123 172.614 100.561 172.631 99.875C172.614 99.1895 173.194 98.627 173.879 98.627C174.547 98.627 175.127 99.1895 175.127 99.875C175.127 100.561 174.547 101.123 173.879 101.123ZM178.986 101.123C178.3 101.123 177.72 100.561 177.737 99.875C177.72 99.1895 178.3 98.627 178.986 98.627C179.653 98.627 180.234 99.1895 180.234 99.875C180.234 100.561 179.653 101.123 178.986 101.123Z" fill="black"/>
</svg>
